PathFileType	4	(X/Y/Z)	Patient5_TMGait_0pt45_1_right_13.trc.trc
DataRate	CameraRate	NumFrames	NumMarkers	Units	OrigDataRate	OrigDataStartFrame	OrigNumFrames
63.348416289593	63.348416289593	5	32	mm	63.348416289593	124	       141
Frame#	Time	R.ASIS			L.ASIS			Chest			R.Shoulder			Neck			L.Shoulder			L.Elbow			L.Wrist			R.Elbow			R.Wrist			L.Thigh.Superior			L.Thigh.Lateral			L.Thigh.Inferior			L.Patella			L.Shank.Superior			L.Shank.Lateral			L.Shank.Inferior			L.Heel			L.Midfoot.Lateral			L.Midfoot.Superior			L.Toe			R.Thigh.Superior			R.Thigh.Lateral			R.Thigh.Inferior			R.Patella			R.Shank.Superior			R.Shank.Lateral			R.Shank.Inferior			R.Heel			R.Midfoot.Lateral			R.Midfoot.Superior			R.Toe			
		X1	Y1	Z1	X2	Y2	Z2	X3	Y3	Z3	X4	Y4	Z4	X5	Y5	Z5	X6	Y6	Z6	X7	Y7	Z7	X8	Y8	Z8	X9	Y9	Z9	X10	Y10	Z10	X11	Y11	Z11	X12	Y12	Z12	X13	Y13	Z13	X14	Y14	Z14	X15	Y15	Z15	X16	Y16	Z16	X17	Y17	Z17	X18	Y18	Z18	X19	Y19	Z19	X20	Y20	Z20	X21	Y21	Z21	X22	Y22	Z22	X23	Y23	Z23	X24	Y24	Z24	X25	Y25	Z25	X26	Y26	Z26	X27	Y27	Z27	X28	Y28	Z28	X29	Y29	Z29	X30	Y30	Z30	X31	Y31	Z31	X32	Y32	Z32	

124	23.321642857143	1053.377637025636	979.927651388396	558.731906685275	1040.232358428565	953.806539768426	315.200567885179	1095.938562453391	1434.052711994917	464.568573667072	984.834911424362	1489.250548359919	627.707209959639	969.998378588538	1554.655782358652	444.840138829892	1047.901636676946	1507.055409546484	267.092649216350	1021.303191811459	1189.776365466402	119.252663207294	1149.228619399576	931.760172568489	159.198829304481	890.446354686877	1172.093247366209	764.567054849906	1102.447539786631	985.285044391347	695.575981831015	1018.194567672485	724.567412470834	319.278770877801	927.019507376372	668.908102913134	279.883162769378	981.672888860670	598.130571386584	343.417800652787	947.783408437830	482.214614904558	350.827604026445	878.923797685324	393.243495514565	373.068251033197	799.808129031841	339.894233923745	294.829953222124	818.588624060711	280.393285255872	381.415409591291	638.348107391088	70.127348123644	379.198365569140	727.311376758353	39.424847467929	323.393890186123	825.268405512558	90.273537235578	369.984243557418	926.950166381254	43.826171057384	379.174306718616	1097.089232517594	754.107091022388	581.897874352051	1029.028194703342	667.225474804353	641.171115431592	1114.370554406583	626.131250033770	564.879754931030	1134.668938455497	531.223526764615	599.952777659074	1105.775540841058	427.843234728900	565.931814276566	1040.091209228301	353.047281027015	646.377725524921	1106.013659470653	287.846805434069	568.267924125577	1011.182030360968	57.596572133048	538.630062000215	1090.763853189809	25.783300099003	609.824345678520	1193.353208629399	96.496227590995	595.536940754781	1298.518485274729	57.549028518819	592.675220385950	
125	23.337428571429	1054.903709254857	977.065273333264	561.125839583468	1042.645511229209	952.999272811415	317.674266230817	1096.564043513342	1433.115059978407	467.702788969220	986.419534964604	1487.649054871945	631.716706113051	969.744133417370	1553.177710725014	448.926071283556	1046.017471893759	1505.798685682225	270.309943610608	1016.117459760408	1189.246270405424	121.475411554806	1142.642812262340	930.043830686231	158.177897055756	895.090535602026	1169.603882130545	768.821065572898	1107.019794835937	983.651186993420	697.354436419856	1018.831111936438	723.480135925704	321.323863456822	927.270882833513	668.225366707282	281.815531414240	982.013086908671	597.026379157812	344.917920173584	946.934723788119	480.230719860830	351.731538522365	876.795533810707	392.239085179204	373.774560363307	796.614453026915	340.508360866476	295.298456281532	814.650627395620	280.168156316009	381.415645985172	631.667261674158	71.920037856891	378.805216596149	720.456881080175	40.328565677089	323.170804638623	818.759512520919	90.498111853425	369.595028933079	919.749430154852	43.800467649195	379.073124808887	1096.266603338636	750.634815309699	583.809676976114	1026.239909827550	664.069395631946	641.729356813232	1111.369049609124	622.483699116570	565.405529357539	1130.295994657196	527.230172212205	599.417966374428	1101.142638599730	424.622206426856	564.440023308649	1035.296727602350	349.619436254327	644.538827969518	1100.970799525519	284.624156416499	565.983500342577	1005.179934214712	54.942134892206	535.464205814568	1084.113522100846	24.442301333966	607.779279210367	1187.483285001687	93.427644653234	591.535139040361	1292.346913993555	53.294358839316	590.176498842410	
126	23.353214285714	1056.103846141007	974.760337576097	563.704784040997	1045.003631468599	952.432053764407	320.423032693581	1097.494940037285	1432.381503160348	471.045888200672	988.179443351186	1486.360780288173	635.797192358703	969.961718592942	1552.037228321823	453.034120123322	1044.732952392536	1504.757853176530	273.677109530675	1011.061025279970	1188.939459830195	124.036701935658	1135.898891590349	928.455161372701	157.299562930140	900.008617398833	1167.278682208050	772.883459265441	1111.972440701984	982.198679388501	699.316233558823	1019.790538385137	722.679540928603	323.624365964211	928.079231424340	667.666640016861	283.880482683390	982.994801003879	596.178239568490	346.632843359206	946.846397194689	478.211892277015	352.690516066490	875.328515915233	391.271491652678	374.470481762826	794.014266463305	341.320620388557	295.734691227505	811.204913688343	280.159507813982	381.511864890443	625.174618283284	74.259925152400	378.344170979919	713.711085955783	41.493475509730	322.919336346339	812.503445414839	90.779831663561	369.137582309682	912.566224105721	43.766515896589	378.984137230000	1095.725277056976	748.273302255777	585.931168017322	1024.274218038828	661.889707941916	642.685892427625	1109.235226352277	620.046721294540	566.309582469412	1127.002306789421	524.388803112938	599.260505694875	1097.270809397899	422.277599512502	563.466126656787	1031.347540955139	347.259626477437	643.469345029778	1096.237804813236	282.282674505051	564.231406940532	998.758454731067	53.225260387068	533.076573945882	1077.144158872850	23.939746068080	606.373017053866	1181.294632948468	91.211074734316	588.083606354846	1285.837536267938	49.869234349201	588.067995511757	
127	23.369000000000	1057.060943387741	973.199960743475	566.554563530917	1047.171983672835	952.231744157185	323.421985662503	1098.719560556237	1431.962611263040	474.565287704416	990.120378267413	1485.525014074169	639.918309872518	970.674520983848	1551.369640497416	457.127848174142	1044.123812647898	1504.086253297868	277.172586360464	1006.174833252247	1189.021750558365	126.956077462702	1128.990792330504	927.145813439202	156.641283815531	905.132328684245	1165.308620447581	776.735462646406	1117.238561261735	981.106719864763	701.445771320347	1021.082098094849	722.303396268901	326.121579935905	929.491070505887	667.327509046853	286.004741253217	984.673094992674	595.692286628930	348.480193210409	947.661574387712	476.259735762260	353.592603858487	874.657795161402	390.415173155825	375.053914779168	792.124283489274	342.406021157736	296.092871593955	808.391841663367	280.472315465634	381.688042805583	618.964803085152	77.347228044050	377.846198084086	707.111299734236	43.021630484825	322.666471875058	806.595340230677	91.119228578886	368.607092900653	905.408352670485	43.721188392863	378.914894805509	1095.516222644250	747.028944989534	588.364484993289	1023.148666511793	660.676870440037	644.101073550523	1108.057034323639	618.811398963339	567.735414027927	1124.806458854821	522.688049952734	599.680222279654	1094.224422187593	420.783530612144	563.206789933681	1028.200581288122	345.940845878586	643.302680040980	1091.882733888864	280.794071040244	563.223962923543	992.057587880293	52.355624454967	531.529212500258	1070.034803950105	24.004125729059	605.567936288170	1174.879939203917	89.780231435366	585.472274416678	1279.120000530647	47.357719410524	586.484816727880	
128	23.384785714286	1057.867727777027	972.443998873143	569.696257419320	1049.034245000165	952.487781934902	326.627466162010	1100.207618023157	1431.932152606850	478.217179185734	992.241992723026	1485.241630729932	644.047662799899	971.868785320228	1551.258831204513	461.184218563146	1044.224121535110	1503.901629733232	280.776705785110	1001.522857607454	1189.637929990157	130.214326954190	1121.931353870982	926.247423995072	156.297350682311	910.356283319167	1163.867127109285	780.382545677127	1122.737919156812	980.579070692652	703.720269419154	1022.722450258703	722.447320389327	328.695510908249	931.534806435997	667.274684249455	288.077581480990	987.107940740327	595.630990152938	350.303214233148	949.542669246641	474.447084577775	354.253975174103	874.932516080431	389.717567267527	375.379301797875	791.066168954918	343.816691859195	296.297107692864	806.365425741988	281.176421827542	381.860446238031	613.149177607263	81.369350482399	377.329090065023	700.702009733989	45.005925439752	322.429651868984	801.123624549778	91.503136702687	367.995801687230	898.282257172590	43.659913802158	378.875544766295	1095.643172591910	746.734016315385	591.228554973390	1022.697612316778	660.285279649089	645.986648275514	1107.781546214901	618.585723269774	569.830359424709	1123.533620038620	521.941957687562	600.866765513281	1091.925029543763	420.001617871803	563.775192233365	1025.621273886365	345.496848953874	644.022514746034	1087.874150351783	280.018990040199	563.069123015257	985.189098497172	52.154790836332	530.758265580149	1062.902660864420	24.363933628221	605.266221513518	1168.297685228970	88.994969006134	583.826897041303	1272.280840762860	45.723656153068	585.478569961923	
